<svg width="40" height="48" viewBox="0 0 40 48" fill="none" xmlns="http://www.w3.org/2000/svg">
<path d="M28.75 30.25C28.75 30.7142 28.5656 31.1593 28.2374 31.4875C27.9092 31.8157 27.4641 32 27 32H13C12.5359 32 12.0908 31.8157 11.7626 31.4875C11.4344 31.1593 11.25 30.7142 11.25 30.25C11.25 29.7859 11.4344 29.3408 11.7626 29.0126C12.0908 28.6844 12.5359 28.5 13 28.5H27C27.4641 28.5 27.9092 28.6844 28.2374 29.0126C28.5656 29.3408 28.75 29.7859 28.75 30.25ZM27 21.5H13C12.5359 21.5 12.0908 21.6844 11.7626 22.0126C11.4344 22.3408 11.25 22.7859 11.25 23.25C11.25 23.7142 11.4344 24.1593 11.7626 24.4875C12.0908 24.8157 12.5359 25 13 25H27C27.4641 25 27.9092 24.8157 28.2374 24.4875C28.5656 24.1593 28.75 23.7142 28.75 23.25C28.75 22.7859 28.5656 22.3408 28.2374 22.0126C27.9092 21.6844 27.4641 21.5 27 21.5ZM39.25 7.50005V44.25C39.25 45.1783 38.8812 46.0685 38.2249 46.7249C37.5685 47.3813 36.6783 47.75 35.75 47.75H4.25C3.32174 47.75 2.4315 47.3813 1.77513 46.7249C1.11875 46.0685 0.75 45.1783 0.75 44.25V7.50005C0.75 6.57179 1.11875 5.68155 1.77513 5.02518C2.4315 4.3688 3.32174 4.00005 4.25 4.00005H12.1819C13.1652 2.89913 14.3699 2.0183 15.7172 1.41521C17.0644 0.812116 18.5239 0.500366 20 0.500366C21.4761 0.500366 22.9356 0.812116 24.2828 1.41521C25.6301 2.0183 26.8348 2.89913 27.8181 4.00005H35.75C36.6783 4.00005 37.5685 4.3688 38.2249 5.02518C38.8812 5.68155 39.25 6.57179 39.25 7.50005ZM13 11H27C27 9.14353 26.2625 7.36306 24.9497 6.0503C23.637 4.73755 21.8565 4.00005 20 4.00005C18.1435 4.00005 16.363 4.73755 15.0503 6.0503C13.7375 7.36306 13 9.14353 13 11ZM35.75 7.50005H29.8984C30.2965 8.62402 30.5 9.80766 30.5 11V12.75C30.5 13.2142 30.3156 13.6593 29.9874 13.9875C29.6592 14.3157 29.2141 14.5 28.75 14.5H11.25C10.7859 14.5 10.3408 14.3157 10.0126 13.9875C9.68438 13.6593 9.5 13.2142 9.5 12.75V11C9.50004 9.80766 9.70348 8.62402 10.1016 7.50005H4.25V44.25H35.75V7.50005Z" fill="#de6c5c"/>
</svg>
